<svg xmlns="http://www.w3.org/2000/svg" width="13" height="26" viewBox="0 0 13 26">
  <g id="Icon_material-battery-charging-20" data-name="Icon material-battery-charging-20" transform="translate(-10.5 -3)">
    <path id="Path_773" data-name="Path 773" d="M15.7,29.4V25.5H10.5v4.771A1.737,1.737,0,0,0,12.229,32h9.529A1.739,1.739,0,0,0,23.5,30.271V25.5H17.78Z" transform="translate(0 -3)"/>
    <path id="Path_774" data-name="Path 774" d="M21.771,5.6H19.6V3H14.4V5.6H12.229A1.737,1.737,0,0,0,10.5,7.329V22.5h5.2V19.25H13.1L18.3,9.5v7.15h2.6L17.78,22.5H23.5V7.329A1.737,1.737,0,0,0,21.771,5.6Z" fill="rgba(0,0,0,0.3)"/>
  </g>
</svg>
