<svg xmlns="http://www.w3.org/2000/svg" width="66" height="55.61" viewBox="0 0 66 55.61">
  <path id="smart-glasses-svgrepo-com_1_" data-name="smart-glasses-svgrepo-com (1)" d="M64.471,30,61.145,10.043,58.066,6.964a1.736,1.736,0,0,1,2.456-2.455l3.472,3.472a1.737,1.737,0,0,1,.485.942l3.5,21.119v6.274q.026.332.026.671V50.929a8.681,8.681,0,0,1-8.681,8.681H46.945a8.681,8.681,0,0,1-8.239-5.948l-1.5-4.521h-.965l-1.5,4.521A8.681,8.681,0,0,1,26.5,59.61H14.153a8.681,8.681,0,0,1-8.681-8.681V45.371a5.21,5.21,0,0,1,0-9.826L5.5,29.757,8.968,8.923a1.736,1.736,0,0,1,.485-.942l3.472-3.472a1.736,1.736,0,0,1,2.455,2.455l-3.08,3.08-3.356,20a8.643,8.643,0,0,1,5.208-1.735H59.319A8.641,8.641,0,0,1,64.471,30Zm.057,7.286a1.723,1.723,0,0,1-.026-.3l0-.5a5.209,5.209,0,0,0-5.185-4.708H14.153a5.211,5.211,0,0,0-4.912,3.472H21.1a1.736,1.736,0,0,1,1.736,1.736v6.945A1.736,1.736,0,0,1,21.1,45.668H8.945v5.261a5.209,5.209,0,0,0,5.208,5.208H26.5a5.208,5.208,0,0,0,4.944-3.569l1.894-5.711a1.737,1.737,0,0,1,1.648-1.19h3.472a1.737,1.737,0,0,1,1.648,1.19L42,52.569a5.208,5.208,0,0,0,4.944,3.569H59.319a5.209,5.209,0,0,0,5.208-5.208V37.285ZM19.362,38.723H7.208a1.736,1.736,0,1,0,0,3.472H19.362Z" transform="translate(-2 -4)"/>
</svg>
