<svg xmlns="http://www.w3.org/2000/svg" viewBox="0 0 77 77">
  <g id="Group_356" data-name="Group 356" transform="translate(-246 -3376)">
    <g id="Area_SIZE:MEDIUM_STATE:DEFAULT_STYLE:STYLE2_" data-name="Area [SIZE:MEDIUM][STATE:DEFAULT][STYLE:STYLE2]" transform="translate(246 3376)" fill="#fff" stroke="#3e3e3e" stroke-width="2">
      <rect width="77" height="77" rx="38.5" stroke="none"/>
      <rect x="1" y="1" width="75" height="75" rx="37.5" fill="none"/>
    </g>
    <path id="Icon_awesome-google-play" data-name="Icon awesome-google-play" d="M20.873,15.474,7.355.914,27.1,12.248l-6.226,3.226ZM3.3,0A2.733,2.733,0,0,0,1.779,2.482V33.511A2.733,2.733,0,0,0,3.3,35.993l18.042-18ZM33.2,15.863l-4.141-2.4L24.441,18l4.62,4.535,4.226-2.4a2.821,2.821,0,0,0-.084-4.275ZM7.355,35.086,27.1,23.752l-4.226-4.226Z" transform="translate(266.221 3397)"/>
  </g>
</svg>
