<svg xmlns="http://www.w3.org/2000/svg" width="119.41" height="231.483" viewBox="0 0 119.41 231.483">
  <g id="logo" transform="translate(1.299 0.75)">
    <g id="Group_14" data-name="Group 14" transform="translate(6.648 8.479)" opacity="0.8">
      <g id="Group_13" data-name="Group 13" transform="translate(-4.814 -9.884)">
        <g id="Group_12" data-name="Group 12">
          <g id="Group_11" data-name="Group 11">
            <g id="Group_10" data-name="Group 10">
              <g id="Group_7" data-name="Group 7" transform="translate(6.772 15.416)">
                <path id="Path_55" data-name="Path 55" d="M1736.235,1340.669a57.035,57.035,0,0,0,20.876,77.91q.665.385,1.337.748l8.357-14.474q-.675-.357-1.341-.741a40.329,40.329,0,0,1,40.329-69.853q.666.385,1.312.791l8.356-14.475q-.65-.4-1.316-.784A57.035,57.035,0,0,0,1736.235,1340.669Zm8.293,45.16a45.338,45.338,0,0,0,16.538,21.557l-3.15,5.454a51.6,51.6,0,0,1-19.474-25.381Zm-2.115-7.892-6.085,1.63a51.59,51.59,0,0,1,4.175-31.717l5.455,3.149A45.336,45.336,0,0,0,1742.413,1377.938Zm7.63-34.013-5.455-3.15a51.6,51.6,0,0,1,25.381-19.474l1.63,6.086A45.341,45.341,0,0,0,1750.043,1343.924Zm56.386-15.109a45.34,45.34,0,0,0-26.938-3.543l-1.631-6.086a51.6,51.6,0,0,1,31.718,4.175Z" transform="translate(-1723.268 -1306.825)" fill="none"/>
                <path id="Path_56" data-name="Path 56" d="M1815.412,1412.8a37.79,37.79,0,0,0,13.832,51.623c.443.256.892.5,1.341.739l1.458-2.526q-.675-.353-1.342-.737a34.878,34.878,0,0,1,34.878-60.409q.665.384,1.309.795l1.458-2.526q-.645-.406-1.311-.792A37.79,37.79,0,0,0,1815.412,1412.8Z" transform="translate(-1785.779 -1369.337)" fill="none"/>
                <path id="Path_57" data-name="Path 57" d="M1739.842,1401.309a57.035,57.035,0,1,1,57.034-98.787q.667.385,1.317.784l2.659-4.606q-.652-.4-1.316-.782-.749-.432-1.5-.842a62.352,62.352,0,0,0-60.847,108.838q.665.383,1.335.749l2.659-4.606Q1740.507,1401.693,1739.842,1401.309Z" transform="translate(-1705.997 -1289.554)"/>
                <path id="Path_58" data-name="Path 58" d="M1804.968,1403.289a40.33,40.33,0,0,0,14.762,55.091q.667.385,1.34.74l1.271-2.2q-.676-.354-1.343-.739a37.791,37.791,0,0,1,37.792-65.456q.667.385,1.311.792l1.269-2.2q-.645-.406-1.312-.791A40.33,40.33,0,0,0,1804.968,1403.289Z" transform="translate(-1777.533 -1361.092)"/>
                <path id="Path_59" data-name="Path 59" d="M1827.4,1423.725a34.877,34.877,0,0,0,12.767,47.643q.666.385,1.342.736l9.282-16.077q-.461-.213-.914-.455l-8.286,13.328,7.4-13.84a16.328,16.328,0,0,1-2.582-1.976l-11.451,10.726,10.727-11.451a16.188,16.188,0,0,1-1.98-2.581l-13.837,7.4,13.326-8.286a16.425,16.425,0,0,1-1.242-3l-15.283,3.565,15.019-4.554a16.389,16.389,0,0,1-.427-3.223l-15.683-.512,15.682-.511a16.274,16.274,0,0,1,.424-3.225l-15.015-4.553,15.279,3.564a16.377,16.377,0,0,1,1.248-3l-13.328-8.285,13.839,7.4a16.3,16.3,0,0,1,1.977-2.582l-10.726-11.45,11.451,10.726a16.228,16.228,0,0,1,2.581-1.979l-7.4-13.837,8.285,13.326a16.476,16.476,0,0,1,3.006-1.243l-3.566-15.283,4.554,15.018a16.382,16.382,0,0,1,3.224-.426l.512-15.684.512,15.682a16.24,16.24,0,0,1,3.224.424l4.554-15.015-3.565,15.28a16.366,16.366,0,0,1,3,1.248l8.286-13.327-7.4,13.84q.438.27.851.564l9.282-16.078q-.642-.409-1.308-.795A34.879,34.879,0,0,0,1827.4,1423.725Z" transform="translate(-1795.244 -1378.802)"/>
                <path id="Path_60" data-name="Path 60" d="M1969.242,1418.409l-.512,15.684c.34-.011.682-.011,1.023,0Z" transform="translate(-1906.88 -1388.075)" fill="#fff"/>
                <path id="Path_61" data-name="Path 61" d="M1874.7,1458.259l10.726,11.451q.352-.376.724-.724Z" transform="translate(-1834.987 -1418.544)" fill="#fff"/>
                <path id="Path_62" data-name="Path 62" d="M1902.878,1436.637l7.4,13.837q.435-.27.887-.511Z" transform="translate(-1856.531 -1402.012)" fill="#fff"/>
                <path id="Path_63" data-name="Path 63" d="M2004.62,1450.477l7.4-13.84-8.287,13.328c.15.08.3.163.447.249S2004.475,1450.387,2004.62,1450.477Z" transform="translate(-1933.643 -1402.012)" fill="#fff"/>
                <path id="Path_64" data-name="Path 64" d="M1991.331,1423.043l-4.553,15.015q.5.117.989.265Z" transform="translate(-1920.68 -1391.619)" fill="#fff"/>
                <path id="Path_65" data-name="Path 65" d="M1910.278,1613.5l-7.4,13.839,8.287-13.328c-.15-.081-.3-.163-.449-.249S1910.423,1613.587,1910.278,1613.5Z" transform="translate(-1856.53 -1537.24)" fill="#fff"/>
                <path id="Path_66" data-name="Path 66" d="M1854.506,1570.33l-15.019,4.554,15.284-3.565Q1854.624,1570.828,1854.506,1570.33Z" transform="translate(-1808.063 -1504.233)" fill="#fff"/>
                <path id="Path_67" data-name="Path 67" d="M1940.246,1438.064l-4.554-15.019,3.566,15.284C1939.584,1438.23,1939.914,1438.141,1940.246,1438.064Z" transform="translate(-1881.619 -1391.62)" fill="#fff"/>
                <path id="Path_68" data-name="Path 68" d="M1866.92,1493.836l-13.84-7.4,13.328,8.286c.08-.149.163-.3.249-.448S1866.83,1493.981,1866.92,1493.836Z" transform="translate(-1818.455 -1440.089)" fill="#fff"/>
                <path id="Path_69" data-name="Path 69" d="M1853.079,1595.58l13.837-7.4q-.27-.436-.511-.887Z" transform="translate(-1818.454 -1517.205)" fill="#fff"/>
                <path id="Path_70" data-name="Path 70" d="M1834.852,1552.8l15.684.512c-.011-.341-.013-.682,0-1.024Z" transform="translate(-1804.518 -1490.439)" fill="#fff"/>
                <path id="Path_71" data-name="Path 71" d="M1874.7,1613.477l11.451-10.726q-.374-.352-.724-.724Z" transform="translate(-1834.986 -1528.469)" fill="#fff"/>
                <path id="Path_72" data-name="Path 72" d="M1839.489,1519.25l15.014,4.553c.078-.331.165-.661.265-.989Z" transform="translate(-1808.063 -1465.178)" fill="#fff"/>
                <path id="Path_73" data-name="Path 73" d="M1925.966,1487.188c-.148-.086-.3-.168-.448-.249a16.436,16.436,0,0,0-3-1.248c-.329-.1-.659-.187-.989-.265a16.3,16.3,0,0,0-3.225-.424q-.513-.016-1.024,0a16.375,16.375,0,0,0-3.224.427q-.5.117-.989.265a16.368,16.368,0,0,0-3,1.243q-.451.242-.888.51a16.2,16.2,0,0,0-2.58,1.98q-.372.348-.724.723a16.41,16.41,0,0,0-1.977,2.582c-.09.145-.177.291-.263.44s-.168.3-.248.447a16.441,16.441,0,0,0-1.249,3q-.148.494-.265.989a16.263,16.263,0,0,0-.424,3.225q-.015.512,0,1.024a16.385,16.385,0,0,0,.426,3.224q.116.5.265.988a16.522,16.522,0,0,0,1.242,3.005q.242.45.511.887a16.265,16.265,0,0,0,1.979,2.581c.233.247.474.489.724.724a16.36,16.36,0,0,0,2.582,1.976c.145.09.291.178.439.264s.3.167.448.248q.452.244.913.455l16.279-28.2q-.413-.293-.85-.564C1926.26,1487.362,1926.114,1487.274,1925.966,1487.188Z" transform="translate(-1855.428 -1438.987)" fill="#fff"/>
                <path id="Path_74" data-name="Path 74" d="M1939.537,1345.316a45.337,45.337,0,0,1,26.938,3.544l3.149-5.454a51.594,51.594,0,0,0-31.718-4.175Z" transform="translate(-1883.313 -1326.87)"/>
                <path id="Path_75" data-name="Path 75" d="M1796.568,1370.519l5.455,3.149a45.337,45.337,0,0,1,21.557-16.538l-1.631-6.086A51.6,51.6,0,0,0,1796.568,1370.519Z" transform="translate(-1775.246 -1336.57)"/>
                <path id="Path_76" data-name="Path 76" d="M1762.822,1463.83a51.592,51.592,0,0,0-4.175,31.717l6.085-1.63a45.342,45.342,0,0,1,3.544-26.938Z" transform="translate(-1745.586 -1422.804)"/>
                <path id="Path_77" data-name="Path 77" d="M1793.084,1646.718a45.338,45.338,0,0,1-16.537-21.557l-6.086,1.63a51.6,51.6,0,0,0,19.474,25.381Z" transform="translate(-1755.285 -1546.156)"/>
              </g>
              <path id="Path_78" data-name="Path 78" d="M1939.576,1816.884l-13.387,8.188c-.158-.3-.326-.6-.5-.891Z" transform="translate(-1867.196 -1677.33)" fill="#fff"/>
              <path id="Path_79" data-name="Path 79" d="M1951.481,1883.011l-15.685.4q.019-.512.006-1.023Z" transform="translate(-1874.927 -1727.412)" fill="#fff"/>
              <path id="Path_80" data-name="Path 80" d="M1899.645,1779.995l8.382-13.268-7.5,13.787q-.216-.137-.437-.267T1899.645,1779.995Z" transform="translate(-1847.287 -1638.98)" fill="#fff"/>
              <path id="Path_81" data-name="Path 81" d="M1925.833,1788.549l-10.809,11.373c-.231-.249-.47-.493-.719-.728Z" transform="translate(-1858.495 -1655.666)" fill="#fff"/>
              <path id="Path_82" data-name="Path 82" d="M1933.014,1853.249l15.309-3.454-15.051,4.446C1933.2,1853.908,1933.11,1853.576,1933.014,1853.249Z" transform="translate(-1872.799 -1702.494)" fill="#fff"/>
              <path id="Path_83" data-name="Path 83" d="M1984.764,1726.582a45.345,45.345,0,0,0-16.382-21.676l3.188-5.431a51.592,51.592,0,0,1,19.291,25.52Z" transform="translate(-1899.842 -1587.56)" fill="#699ebf"/>
              <g id="Group_9" data-name="Group 9" transform="translate(0 100.837)">
                <path id="Path_84" data-name="Path 84" d="M1947.995,1905.08l-15.253-3.675q.152-.491.272-.987Z" transform="translate(-1872.592 -1842.037)" fill="#fff"/>
                <g id="Group_8" data-name="Group 8">
                  <path id="Path_85" data-name="Path 85" d="M1797.218,1672.658q-.662-.389-1.33-.758l-8.461,14.414q.671.36,1.334.75a40.329,40.329,0,1,1-40.832,69.559q-.664-.39-1.306-.8l-8.461,14.414q.647.4,1.309.793a57.034,57.034,0,1,0,57.745-98.373Zm-21.465,99.242a51.6,51.6,0,0,1-31.687-4.4l3.188-5.432a45.344,45.344,0,0,0,26.911,3.738Zm28-24.537,5.432,3.188a51.591,51.591,0,0,1-25.52,19.29l-1.587-6.1A45.324,45.324,0,0,0,1803.748,1747.364Zm7.874-33.958,6.1-1.587a51.591,51.591,0,0,1-4.4,31.687l-5.431-3.188A45.34,45.34,0,0,0,1811.623,1713.406Zm-15.251-35.014a51.594,51.594,0,0,1,19.291,25.521l-6.1,1.586a45.338,45.338,0,0,0-16.383-21.675Z" transform="translate(-1723.819 -1667.314)" fill="none"/>
                  <path id="Path_86" data-name="Path 86" d="M1832.593,1794.907a37.79,37.79,0,0,1-51.721,13.459q-.664-.389-1.305-.8l1.477-2.516q.64.414,1.3.8a34.877,34.877,0,0,0,35.313-60.156q-.664-.39-1.338-.746l1.476-2.516q.673.359,1.337.749A37.79,37.79,0,0,1,1832.593,1794.907Z" transform="translate(-1755.475 -1721.245)" fill="none"/>
                  <path id="Path_87" data-name="Path 87" d="M1730.728,1756.135a57.035,57.035,0,1,0,57.746-98.373q-.662-.389-1.33-.757l2.692-4.587q.668.37,1.33.759.747.439,1.475.893a62.352,62.352,0,0,1-64.6,106.65q-.662-.387-1.31-.791l2.692-4.587Q1730.066,1755.746,1730.728,1756.135Z" transform="translate(-1715.074 -1652.418)" fill="#052159"/>
                  <line id="Line_1" data-name="Line 1" x1="16.179" y2="28.022" transform="translate(-1.834 102.528)" fill="#244065" stroke="#052159" stroke-width="3"/>
                  <path id="Path_88" data-name="Path 88" d="M1830.607,1789.076a40.33,40.33,0,0,1-55.2,14.364q-.663-.389-1.305-.8l1.286-2.191q.641.412,1.3.8a37.791,37.791,0,1,0,38.262-65.182q-.663-.39-1.336-.748l1.286-2.191q.671.361,1.335.751A40.329,40.329,0,0,1,1830.607,1789.076Z" transform="translate(-1751.3 -1714.13)" fill="#052159"/>
                  <path id="Path_89" data-name="Path 89" d="M1834.877,1801.6a34.877,34.877,0,0,1-47.734,12.422q-.664-.389-1.3-.8l9.4-16.009q.412.3.846.57l-7.5,13.786,8.381-13.268a16.445,16.445,0,0,0,2.994,1.271l-3.674,15.253,4.661-14.982a16.227,16.227,0,0,0,3.222.448l.4,15.685.625-15.679a16.435,16.435,0,0,0,3.226-.4l4.446,15.051-3.455-15.31a16.36,16.36,0,0,0,3.013-1.22l8.189,13.386-7.3-13.89a16.187,16.187,0,0,0,2.595-1.961l11.372,10.809-10.643-11.527a16.4,16.4,0,0,0,1.995-2.569l13.786,7.5-13.266-8.382a16.356,16.356,0,0,0,1.269-2.994l15.254,3.675-14.981-4.661a16.323,16.323,0,0,0,.447-3.222l15.686-.4-15.681-.625a16.37,16.37,0,0,0-.4-3.227l15.051-4.446-15.309,3.455a16.356,16.356,0,0,0-1.22-3.014l13.386-8.188-13.89,7.3a16.272,16.272,0,0,0-1.961-2.6l10.809-11.373-11.527,10.645a16.448,16.448,0,0,0-2.569-2l7.5-13.786-8.382,13.268c-.3-.164-.6-.318-.911-.461l9.4-16.01q.673.357,1.337.746A34.877,34.877,0,0,1,1834.877,1801.6Z" transform="translate(-1760.271 -1729.414)" fill="#16558c"/>
                  <path id="Path_90" data-name="Path 90" d="M1805.883,1943.346l-8.382,13.267,7.5-13.786c.143.09.289.18.437.267S1805.735,1943.265,1805.883,1943.346Z" transform="translate(-1769.188 -1874.463)" fill="#fff"/>
                  <path id="Path_91" data-name="Path 91" d="M1882.747,1950.7,1886.2,1966l-4.446-15.051C1882.09,1950.878,1882.42,1950.792,1882.747,1950.7Z" transform="translate(-1833.609 -1880.479)" fill="#fff"/>
                  <path id="Path_92" data-name="Path 92" d="M1925.665,1917.328l13.267,8.382-13.787-7.5c.092-.144.181-.289.268-.437S1925.583,1917.477,1925.665,1917.328Z" transform="translate(-1866.783 -1854.966)" fill="#fff"/>
                  <path id="Path_93" data-name="Path 93" d="M1864.1,1969.164l-.4-15.686q.511.019,1.024.006Z" transform="translate(-1819.805 -1882.606)" fill="#fff"/>
                  <path id="Path_94" data-name="Path 94" d="M1906.957,1957.258l-8.189-13.386q.453-.237.891-.5Z" transform="translate(-1846.615 -1874.876)" fill="#fff"/>
                  <path id="Path_95" data-name="Path 95" d="M1830.218,1965.677l3.674-15.253q.491.152.987.272Z" transform="translate(-1794.202 -1880.271)" fill="#fff"/>
                  <path id="Path_96" data-name="Path 96" d="M1924.947,1943.514l-11.373-10.809q.375-.346.729-.719Z" transform="translate(-1857.936 -1866.174)" fill="#fff"/>
                  <path id="Path_97" data-name="Path 97" d="M1843.6,1821.842c.148.086.293.176.437.266a16.308,16.308,0,0,1,2.568,2c.248.235.487.479.719.728a16.283,16.283,0,0,1,1.961,2.6q.266.438.5.891a16.414,16.414,0,0,1,1.221,3.013q.144.492.258.991a16.446,16.446,0,0,1,.4,3.226q.013.512-.006,1.024a16.268,16.268,0,0,1-.447,3.222q-.121.5-.271.986a16.424,16.424,0,0,1-1.27,2.994q-.122.224-.251.447c-.087.147-.177.292-.266.436a16.376,16.376,0,0,1-2,2.568c-.235.248-.479.488-.729.719a16.242,16.242,0,0,1-2.595,1.96q-.438.267-.891.5a16.417,16.417,0,0,1-3.014,1.221q-.491.144-.991.258a16.428,16.428,0,0,1-3.226.4c-.34.009-.682.006-1.023-.006a16.211,16.211,0,0,1-3.222-.447c-.33-.08-.66-.171-.987-.272a16.357,16.357,0,0,1-2.993-1.27c-.149-.081-.3-.164-.446-.251s-.293-.176-.437-.267q-.436-.273-.847-.57l16.482-28.078q.461.215.911.46Q1843.378,1821.713,1843.6,1821.842Z" transform="translate(-1790.795 -1781.414)" fill="#1a1a1a"/>
                  <path id="Path_98" data-name="Path 98" d="M2036.263,1873.157l-5.432-3.188a45.341,45.341,0,0,0,3.739-26.912l6.1-1.587A51.591,51.591,0,0,1,2036.263,1873.157Z" transform="translate(-1947.59 -1796.966)" fill="#699ebf"/>
                  <path id="Path_99" data-name="Path 99" d="M1948.292,1995.65a51.592,51.592,0,0,1-25.52,19.291l-1.587-6.1a45.334,45.334,0,0,0,21.675-16.382Z" transform="translate(-1863.756 -1912.412)" fill="#699ebf"/>
                  <path id="Path_100" data-name="Path 100" d="M1762.923,2054.915a45.341,45.341,0,0,0,26.912,3.739l1.586,6.1a51.608,51.608,0,0,1-31.687-4.4Z" transform="translate(-1740.311 -1960.164)" fill="#699ebf"/>
                </g>
              </g>
              <path id="Path_237" data-name="Path 237" d="M16.179,0,0,28.022" transform="translate(98.799 1.405)" fill="none" stroke="#000" stroke-width="3"/>
            </g>
          </g>
        </g>
      </g>
    </g>
  </g>
</svg>
