<svg xmlns="http://www.w3.org/2000/svg" viewBox="0 0 24.154 37.334">
  <g id="Group_322" data-name="Group 322" transform="translate(-18.039 -5.719)">
    <g id="Group_321" data-name="Group 321" transform="translate(18.789 6.469)">
      <g id="Group_318" data-name="Group 318" transform="translate(4.117)">
        <path id="Path_755" data-name="Path 755" d="M424.069,178a7.22,7.22,0,0,1-7.212-7.212V159.87a7.21,7.21,0,1,1,14.42,0v10.922A7.219,7.219,0,0,1,424.069,178Zm0-23.455a5.325,5.325,0,0,0-5.321,5.321v10.922a5.321,5.321,0,0,0,10.643,0V159.87A5.325,5.325,0,0,0,424.069,154.549Z" transform="translate(-416.857 -152.658)" fill="none" stroke="#052159" stroke-width="1.5"/>
      </g>
      <g id="Group_319" data-name="Group 319" transform="translate(0 18.266)">
        <path id="Path_756" data-name="Path 756" d="M427.15,169.507a11.335,11.335,0,0,1-11.325-11.325.943.943,0,1,1,1.887,0,9.438,9.438,0,0,0,18.876,0,.945.945,0,1,1,1.891,0A11.338,11.338,0,0,1,427.15,169.507Z" transform="translate(-415.825 -157.237)" fill="none" stroke="#052159" stroke-width="1.5"/>
      </g>
      <g id="Group_320" data-name="Group 320" transform="translate(10.379 28.649)">
        <path id="Path_757" data-name="Path 757" d="M419.372,167.024a.945.945,0,0,1-.945-.945v-5.294a.945.945,0,1,1,1.891,0v5.294A.945.945,0,0,1,419.372,167.024Z" transform="translate(-418.427 -159.84)" fill="none" stroke="#052159" stroke-width="1.5"/>
      </g>
    </g>
  </g>
</svg>
