<svg xmlns="http://www.w3.org/2000/svg" viewBox="0 0 53.007 53.007">
  <g id="Group_347" data-name="Group 347" transform="translate(-1668.993 -860.993)">
    <path id="Path_759" data-name="Path 759" d="M552.59,177.071a26.5,26.5,0,1,1-26.5-26.5A26.5,26.5,0,0,1,552.59,177.071Z" transform="translate(1169.41 710.426)" fill="#052159"/>
    <g id="Group_328" data-name="Group 328" transform="translate(1676.942 875.45)">
      <g id="Group_324" data-name="Group 324" transform="translate(23.616)">
        <path id="Path_760" data-name="Path 760" d="M519.08,167.472a1.429,1.429,0,0,1-1.021-.424l-10.6-10.6a1.445,1.445,0,1,1,2.046-2.041l10.6,10.6a1.444,1.444,0,0,1-1.025,2.465Z" transform="translate(-507.036 -153.98)" fill="#fff"/>
      </g>
      <g id="Group_325" data-name="Group 325" transform="translate(23.616)">
        <path id="Path_761" data-name="Path 761" d="M519.08,167.472a1.429,1.429,0,0,1-1.021-.424l-10.6-10.6a1.445,1.445,0,1,1,2.046-2.041l10.6,10.6a1.444,1.444,0,0,1-1.025,2.465Z" transform="translate(-507.036 -153.98)" fill="#fff"/>
      </g>
      <g id="Group_326" data-name="Group 326" transform="translate(23.616 10.601)">
        <path id="Path_762" data-name="Path 762" d="M508.479,169.979a1.423,1.423,0,0,1-1.021-.423,1.449,1.449,0,0,1,0-2.046l10.6-10.6a1.445,1.445,0,0,1,2.046,2.041l-10.6,10.6A1.439,1.439,0,0,1,508.479,169.979Z" transform="translate(-507.036 -156.484)" fill="#fff"/>
      </g>
      <g id="Group_327" data-name="Group 327" transform="translate(0 10.603)">
        <path id="Path_763" data-name="Path 763" d="M537.12,159.372H502.908a1.444,1.444,0,1,1,0-2.888H537.12a1.444,1.444,0,1,1,0,2.888Z" transform="translate(-501.46 -156.484)" fill="#fff"/>
      </g>
    </g>
  </g>
</svg>
